<svg width="100" height="100" viewBox="0 0 100 100" fill="none" xmlns="http://www.w3.org/2000/svg">
<path d="M43.75 6.25H46.875V18.75H43.75V6.25Z" fill="url(#paint0_linear_10112_16)"/>
<path d="M53.125 6.25H56.25V18.75H53.125V6.25Z" fill="url(#paint1_linear_10112_16)"/>
<path d="M65.625 21.875V0H34.375V21.875H28.125V100H71.875V21.875H65.625ZM37.5 3.125H62.5V21.875H37.5V3.125ZM68.75 96.875H31.25V25H68.75V96.875Z" fill="url(#paint2_linear_10112_16)"/>
<path d="M37.5008 62.2094V71.3395L48.4383 76.027V81.5347C46.286 82.2953 44.9944 84.4964 45.3804 86.7463C45.7665 88.997 47.7181 90.6411 50.0008 90.6411C52.2835 90.6411 54.2351 88.997 54.6211 86.7463C55.0072 84.4964 53.7155 82.2953 51.5633 81.5347V70.2096L62.5008 60.0534V53.1221H65.6258V43.7471H56.2508V53.1221H59.3758V58.6892L51.5633 65.9456V37.1064L54.6211 40.1643L56.8306 37.9548L50.0008 31.125L43.1709 37.9548L45.3804 40.1643L48.4383 37.1064V72.6281L40.6258 69.2796V62.2094C42.778 61.4488 44.0697 59.2477 43.6836 56.9978C43.2976 54.7471 41.346 53.103 39.0633 53.103C36.7806 53.103 34.829 54.7471 34.4429 56.9978C34.0569 59.2477 35.3485 61.4488 37.5008 62.2094ZM59.3758 46.8721H62.5008V49.9971H59.3758V46.8721ZM50.0008 84.3721C50.8637 84.3721 51.5633 85.0717 51.5633 85.9346C51.5633 86.7975 50.8637 87.4971 50.0008 87.4971C49.1379 87.4971 48.4383 86.7975 48.4383 85.9346C48.4383 85.0717 49.1379 84.3721 50.0008 84.3721ZM39.0633 56.2471C39.9262 56.2471 40.6258 56.9467 40.6258 57.8096C40.6258 58.6725 39.9262 59.3721 39.0633 59.3721C38.2004 59.3721 37.5008 58.6725 37.5008 57.8096C37.5008 56.9467 38.2004 56.2471 39.0633 56.2471Z" fill="url(#paint3_linear_10112_16)"/>
<defs>
<linearGradient id="paint0_linear_10112_16" x1="44.0694" y1="6.25" x2="46.779" y2="6.30049" gradientUnits="userSpaceOnUse">
<stop stop-color="#C89AFC"/>
<stop offset="1" stop-color="#7C6AFA"/>
</linearGradient>
<linearGradient id="paint1_linear_10112_16" x1="53.4444" y1="6.25" x2="56.154" y2="6.30049" gradientUnits="userSpaceOnUse">
<stop stop-color="#C89AFC"/>
<stop offset="1" stop-color="#7C6AFA"/>
</linearGradient>
<linearGradient id="paint2_linear_10112_16" x1="32.5967" y1="-1.0863e-05" x2="70.5032" y2="1.23613" gradientUnits="userSpaceOnUse">
<stop stop-color="#C89AFC"/>
<stop offset="1" stop-color="#7C6AFA"/>
</linearGradient>
<linearGradient id="paint3_linear_10112_16" x1="37.5691" y1="31.125" x2="64.6332" y2="32.1842" gradientUnits="userSpaceOnUse">
<stop stop-color="#C89AFC"/>
<stop offset="1" stop-color="#7C6AFA"/>
</linearGradient>
</defs>
</svg>
