<svg width="24" height="14" viewBox="0 0 24 14" fill="none" xmlns="http://www.w3.org/2000/svg">
<path fill-rule="evenodd" clip-rule="evenodd" d="M21.3625 9.75863C21.3625 9.75863 23.3029 11.675 23.7829 12.5618C23.7922 12.5746 23.7995 12.5888 23.8045 12.6038C24.0001 12.9314 24.0481 13.1882 23.9521 13.3778C23.7901 13.691 23.2417 13.8482 23.0557 13.8614H19.6261C19.3873 13.8614 18.8905 13.799 18.2857 13.3814C17.8237 13.0586 17.3641 12.527 16.9189 12.0074C16.2541 11.2358 15.6793 10.5662 15.0973 10.5662C15.0238 10.5661 14.9508 10.5782 14.8813 10.6022C14.4409 10.7414 13.8817 11.369 13.8817 13.0406C13.8817 13.5638 13.4689 13.8614 13.1797 13.8614H11.6089C11.0737 13.8614 8.28731 13.6742 5.81651 11.069C2.78891 7.87943 0.0697081 1.48103 0.0433081 1.42463C-0.125892 1.01063 0.229308 0.785025 0.613308 0.785025H4.07651C4.54091 0.785025 4.69211 1.06583 4.79771 1.31783C4.92011 1.60703 5.37371 2.76383 6.11771 4.06343C7.32251 6.17783 8.06291 7.03823 8.65451 7.03823C8.76566 7.03855 8.87492 7.00958 8.97131 6.95423C9.74411 6.52943 9.60011 3.76943 9.56411 3.20063C9.56411 3.09023 9.56291 1.96823 9.16691 1.42583C8.88371 1.03703 8.40131 0.885825 8.10971 0.830625C8.18771 0.717825 8.35331 0.545025 8.56571 0.443025C9.09491 0.179025 10.0513 0.140625 11.0005 0.140625H11.5273C12.5569 0.155025 12.8233 0.221025 13.1977 0.315825C13.9513 0.495825 13.9657 0.984225 13.8997 2.64743C13.8805 3.12263 13.8601 3.65783 13.8601 4.28783C13.8601 4.42223 13.8541 4.57223 13.8541 4.72463C13.8313 5.57783 13.8013 6.53903 14.4037 6.93383C14.4818 6.9825 14.5721 7.00827 14.6641 7.00823C14.8729 7.00823 15.4981 7.00823 17.1937 4.09823C17.9377 2.81303 18.5137 1.29743 18.5533 1.18343C18.5869 1.11983 18.6877 0.941025 18.8101 0.869025C18.8972 0.822699 18.9947 0.799558 19.0933 0.801825H23.1673C23.6113 0.801825 23.9125 0.869025 23.9713 1.03703C24.0697 1.30943 23.9521 2.14103 22.0921 4.65623C21.7789 5.07503 21.5041 5.43743 21.2629 5.75423C19.5769 7.96703 19.5769 8.07863 21.3625 9.75863Z" fill="white"/>
</svg>
