<svg width="22" height="16" viewBox="0 0 22 16" fill="none" xmlns="http://www.w3.org/2000/svg">
<path d="M21.0581 2.94344C20.9386 2.49947 20.7045 2.09467 20.3794 1.76956C20.0543 1.44446 19.6495 1.21044 19.2056 1.09094C17.5706 0.648438 11.0006 0.648438 11.0006 0.648438C11.0006 0.648438 4.43056 0.648438 2.79556 1.09094C2.35159 1.21044 1.9468 1.44446 1.62169 1.76956C1.29658 2.09467 1.06257 2.49947 0.943064 2.94344C0.637773 4.61089 0.489624 6.3033 0.500564 7.99844C0.489624 9.69357 0.637773 11.386 0.943064 13.0534C1.06257 13.4974 1.29658 13.9022 1.62169 14.2273C1.9468 14.5524 2.35159 14.7864 2.79556 14.9059C4.43056 15.3484 11.0006 15.3484 11.0006 15.3484C11.0006 15.3484 17.5706 15.3484 19.2056 14.9059C19.6495 14.7864 20.0543 14.5524 20.3794 14.2273C20.7045 13.9022 20.9386 13.4974 21.0581 13.0534C21.3634 11.386 21.5115 9.69357 21.5006 7.99844C21.5115 6.3033 21.3634 4.61089 21.0581 2.94344ZM8.90056 11.1484V4.84844L14.3531 7.99844L8.90056 11.1484Z" fill="white"/>
</svg>
