<svg width="24" height="24" viewBox="0 0 24 24" fill="none" xmlns="http://www.w3.org/2000/svg">
<g clip-path="url(#clip0_10112_31)">
<path fill-rule="evenodd" clip-rule="evenodd" d="M21.3625 14.7586C21.3625 14.7586 23.3029 16.675 23.7829 17.5618C23.7922 17.5746 23.7995 17.5888 23.8045 17.6038C24.0001 17.9314 24.0481 18.1882 23.9521 18.3778C23.7901 18.691 23.2417 18.8482 23.0557 18.8614H19.6261C19.3873 18.8614 18.8905 18.799 18.2857 18.3814C17.8237 18.0586 17.3641 17.527 16.9189 17.0074C16.2541 16.2358 15.6793 15.5662 15.0973 15.5662C15.0238 15.5661 14.9508 15.5782 14.8813 15.6022C14.4409 15.7414 13.8817 16.369 13.8817 18.0406C13.8817 18.5638 13.4689 18.8614 13.1797 18.8614H11.6089C11.0737 18.8614 8.28731 18.6742 5.81651 16.069C2.78891 12.8794 0.0697081 6.48103 0.0433081 6.42463C-0.125892 6.01063 0.229308 5.78503 0.613308 5.78503H4.07651C4.54091 5.78503 4.69211 6.06583 4.79771 6.31783C4.92011 6.60703 5.37371 7.76383 6.11771 9.06343C7.32251 11.1778 8.06291 12.0382 8.65451 12.0382C8.76566 12.0386 8.87492 12.0096 8.97131 11.9542C9.74411 11.5294 9.60011 8.76943 9.56411 8.20063C9.56411 8.09023 9.56291 6.96823 9.16691 6.42583C8.88371 6.03703 8.40131 5.88582 8.10971 5.83062C8.18771 5.71782 8.35331 5.54502 8.56571 5.44302C9.09491 5.17902 10.0513 5.14062 11.0005 5.14062H11.5273C12.5569 5.15503 12.8233 5.22102 13.1977 5.31582C13.9513 5.49582 13.9657 5.98423 13.8997 7.64743C13.8805 8.12263 13.8601 8.65783 13.8601 9.28783C13.8601 9.42223 13.8541 9.57223 13.8541 9.72463C13.8313 10.5778 13.8013 11.539 14.4037 11.9338C14.4818 11.9825 14.5721 12.0083 14.6641 12.0082C14.8729 12.0082 15.4981 12.0082 17.1937 9.09823C17.9377 7.81303 18.5137 6.29743 18.5533 6.18343C18.5869 6.11983 18.6877 5.94103 18.8101 5.86903C18.8972 5.8227 18.9947 5.79956 19.0933 5.80183H23.1673C23.6113 5.80183 23.9125 5.86903 23.9713 6.03703C24.0697 6.30943 23.9521 7.14103 22.0921 9.65623C21.7789 10.075 21.5041 10.4374 21.2629 10.7542C19.5769 12.967 19.5769 13.0786 21.3625 14.7586Z" fill="white"/>
</g>
<defs>
<clipPath id="clip0_10112_31">
<rect width="24" height="24" fill="white"/>
</clipPath>
</defs>
</svg>
