<svg width="24" height="24" viewBox="0 0 24 24" fill="none" xmlns="http://www.w3.org/2000/svg">
<path d="M22.0581 6.94344C21.9386 6.49947 21.7045 6.09467 21.3794 5.76956C21.0543 5.44446 20.6495 5.21044 20.2056 5.09094C18.5706 4.64844 12.0006 4.64844 12.0006 4.64844C12.0006 4.64844 5.43056 4.64844 3.79556 5.09094C3.35159 5.21044 2.9468 5.44446 2.62169 5.76956C2.29658 6.09467 2.06257 6.49947 1.94306 6.94344C1.63777 8.61089 1.48962 10.3033 1.50056 11.9984C1.48962 13.6936 1.63777 15.386 1.94306 17.0534C2.06257 17.4974 2.29658 17.9022 2.62169 18.2273C2.9468 18.5524 3.35159 18.7864 3.79556 18.9059C5.43056 19.3484 12.0006 19.3484 12.0006 19.3484C12.0006 19.3484 18.5706 19.3484 20.2056 18.9059C20.6495 18.7864 21.0543 18.5524 21.3794 18.2273C21.7045 17.9022 21.9386 17.4974 22.0581 17.0534C22.3634 15.386 22.5115 13.6936 22.5006 11.9984C22.5115 10.3033 22.3634 8.61089 22.0581 6.94344ZM9.90056 15.1484V8.84844L15.3531 11.9984L9.90056 15.1484Z" fill="white"/>
</svg>
