<svg width="40" height="40" viewBox="0 0 40 40" fill="none" xmlns="http://www.w3.org/2000/svg">
<g clip-path="url(#clip0_10103_6)">
<path d="M39.9028 37.3868L38.2052 31.3966C37.8706 30.2162 37.9314 28.9536 38.4121 27.8249C39.5256 25.2116 40.0975 22.3154 39.988 19.2731C39.6108 8.71024 30.9281 0.191838 20.3622 0.00321611C9.02968 -0.197575 -0.197575 9.02968 0.00321611 20.3622C0.191838 30.9281 8.71024 39.6108 19.27 39.988C21.929 40.0823 24.4754 39.6564 26.821 38.8046C28.6889 38.1261 30.7182 38.0105 32.6287 38.5551L37.3808 39.9059C38.9171 40.3439 40.3379 38.9232 39.9028 37.3868ZM11.065 20.0002C11.065 15.0656 15.0656 11.065 20.0002 11.065C24.9348 11.065 28.9354 15.0656 28.9354 20.0002C28.9354 24.9348 24.9348 28.9354 20.0002 28.9354C15.0656 28.9354 11.065 24.9348 11.065 20.0002Z" fill="url(#paint0_linear_10103_6)"/>
<path d="M37.8917 29.0188C37.8917 29.0188 37.8217 28.7968 37.6848 28.4013C36.62 25.3833 31.442 12.3167 21.2047 11.1484C25.5704 11.7356 28.9352 15.4746 28.9352 19.9985C28.9352 24.933 24.9346 28.9337 20 28.9337V39.9954C22.3943 39.9954 24.6912 39.5786 26.8208 38.8059C28.6888 38.1274 30.718 38.0118 32.6285 38.5564L37.3806 39.9072C38.917 40.3422 40.3377 38.9245 39.9027 37.3851L38.2051 31.3949C38.0043 30.6921 37.9495 29.9559 38.0377 29.2409L37.8917 29.0188Z" fill="url(#paint1_linear_10103_6)"/>
</g>
<defs>
<linearGradient id="paint0_linear_10103_6" x1="4.85223" y1="1.35995e-05" x2="40.3757" y2="2.97043" gradientUnits="userSpaceOnUse">
<stop stop-color="#DF5950"/>
<stop offset="1" stop-color="#451046"/>
</linearGradient>
<linearGradient id="paint1_linear_10103_6" x1="22.4239" y1="11.1484" x2="40.2336" y2="12.18" gradientUnits="userSpaceOnUse">
<stop stop-color="#DF5950"/>
<stop offset="1" stop-color="#451046"/>
</linearGradient>
<clipPath id="clip0_10103_6">
<rect width="40" height="40" fill="white"/>
</clipPath>
</defs>
</svg>
